<?xml version="1.0" standalone="no"?>
<!DOCTYPE svg PUBLIC "-//W3C//DTD SVG 20010904//EN"
 "http://www.w3.org/TR/2001/REC-SVG-20010904/DTD/svg10.dtd">
<svg version="1.0" xmlns="http://www.w3.org/2000/svg"
 width="166.000000pt" height="167.000000pt" viewBox="0 0 166.000000 167.000000"
 preserveAspectRatio="xMidYMid meet">

<g transform="translate(0.000000,167.000000) scale(0.100000,-0.100000)"
fill="#000000" stroke="none">
<path d="M285 1491 c-52 -23 -103 -74 -126 -126 -17 -37 -19 -77 -19 -535 l0
-495 24 -51 c29 -62 84 -110 150 -129 71 -22 950 -22 1020 -1 62 19 109 56
143 114 l28 47 3 490 c2 354 0 502 -9 533 -15 53 -81 129 -134 153 -37 17 -76
19 -540 19 -463 0 -503 -2 -540 -19z m748 -293 c51 -11 57 -15 58 -38 1 -31 1
-182 0 -192 -1 -5 -30 -8 -65 -8 l-63 0 -7 71 -7 71 -104 -4 c-118 -4 -145
-17 -145 -74 0 -44 49 -86 137 -114 106 -35 166 -64 207 -100 119 -105 91
-274 -56 -341 -47 -21 -68 -24 -183 -24 -71 0 -163 6 -202 13 l-73 14 0 114 0
114 69 0 70 0 6 -57 c10 -87 5 -83 95 -83 89 0 139 15 164 51 43 62 7 102
-137 153 -206 73 -262 126 -262 247 0 60 3 71 31 105 75 93 254 124 467 82z"/>
</g>
</svg>
